<svg width="1774" height="19" viewBox="0 0 1774 19" fill="none" xmlns="http://www.w3.org/2000/svg">
<path d="M34.8557 0H46.1703L23.906 19H12.3101L34.8557 0Z" fill="#545454"/>
<path d="M80.3118 0H91.6264L69.3621 19H57.7661L80.3118 0Z" fill="#545454"/>
<path d="M125.768 0H137.083L114.819 19H103.223L125.768 0Z" fill="#545454"/>
<path d="M171.225 0H182.539L160.275 19H148.679L171.225 0Z" fill="#545454"/>
<path d="M216.681 0H227.996L205.731 19H194.135L216.681 0Z" fill="#545454"/>
<path d="M262.137 0H273.452L251.188 19H239.592L262.137 0Z" fill="#545454"/>
<path d="M307.593 0H318.908L296.644 19H285.048L307.593 0Z" fill="#545454"/>
<path d="M353.05 0H364.364L342.1 19H330.504L353.05 0Z" fill="#545454"/>
<path d="M398.506 0H409.82L387.556 19H375.96L398.506 0Z" fill="#545454"/>
<path d="M443.962 0H455.276L433.012 19H421.416L443.962 0Z" fill="#545454"/>
<path d="M489.419 0H500.733L478.469 19H466.873L489.419 0Z" fill="#545454"/>
<path d="M534.875 0H546.189L523.925 19H512.329L534.875 0Z" fill="#545454"/>
<path d="M580.331 0H591.645L569.381 19H557.785L580.331 0Z" fill="#545454"/>
<path d="M625.787 0H637.102L614.837 19H603.241L625.787 0Z" fill="#545454"/>
<path d="M671.243 0H682.558L660.293 19H648.697L671.243 0Z" fill="#545454"/>
<path d="M716.7 0H728.015L705.75 19H694.154L716.7 0Z" fill="#545454"/>
<path d="M762.156 0H773.471L751.206 19H739.61L762.156 0Z" fill="#545454"/>
<path d="M807.612 0H818.927L796.662 19H785.066L807.612 0Z" fill="#545454"/>
<path d="M853.069 0H864.384L842.119 19H830.523L853.069 0Z" fill="#545454"/>
<path d="M898.525 0H909.84L887.575 19H875.979L898.525 0Z" fill="#545454"/>
<path d="M943.981 0H955.296L933.032 19H921.436L943.981 0Z" fill="#545454"/>
<path d="M989.438 0H1000.75L978.489 19H966.893L989.438 0Z" fill="#545454"/>
<path d="M1034.89 0H1046.21L1023.94 19H1012.35L1034.89 0Z" fill="#545454"/>
<path d="M1080.35 0H1091.66L1069.4 19H1057.8L1080.35 0Z" fill="#545454"/>
<path d="M1125.81 0H1137.12L1114.86 19H1103.26L1125.81 0Z" fill="#545454"/>
<path d="M1171.26 0H1182.58L1160.31 19H1148.72L1171.26 0Z" fill="#545454"/>
<path d="M1216.72 0H1228.03L1205.77 19H1194.17L1216.72 0Z" fill="#545454"/>
<path d="M1262.18 0H1273.49L1251.23 19H1239.63L1262.18 0Z" fill="#545454"/>
<path d="M1307.63 0H1318.95L1296.68 19H1285.09L1307.63 0Z" fill="#545454"/>
<path d="M1353.09 0H1364.4L1342.14 19H1330.54L1353.09 0Z" fill="#545454"/>
<path d="M1398.54 0H1409.86L1387.6 19H1376L1398.54 0Z" fill="#545454"/>
<path d="M1444 0H1455.32L1433.05 19H1421.46L1444 0Z" fill="#545454"/>
<path d="M1489.46 0H1500.77L1478.51 19H1466.91L1489.46 0Z" fill="#545454"/>
<path d="M1534.91 0H1546.23L1523.96 19H1512.37L1534.91 0Z" fill="#545454"/>
<path d="M1580.37 0H1591.68L1569.42 19H1557.82L1580.37 0Z" fill="#545454"/>
<path d="M1625.83 0H1637.14L1614.88 19H1603.28L1625.83 0Z" fill="#545454"/>
<path d="M1671.28 0H1682.6L1660.33 19H1648.74L1671.28 0Z" fill="#545454"/>
<path d="M1716.74 0H1728.05L1705.79 19H1694.19L1716.74 0Z" fill="#545454"/>
<path d="M1762.19 0H1773.51L1751.24 19H1739.65L1762.19 0Z" fill="#545454"/>
</svg>
